<?xml version="1.0" encoding="UTF-8"?>
<svg id="Layer_2" data-name="Layer 2" xmlns="http://www.w3.org/2000/svg" viewBox="0 0 144 109.81">
  <defs>
    <style>
      .cls-1 {
        fill: #ff2a22;
      }

      .cls-2 {
        fill: #fdfeff;
      }
    </style>
  </defs>
  <g id="Layer_1-2" data-name="Layer 1">
    <g>
      <g>
        <polygon class="cls-1" points="91.97 97.22 122.64 .26 119.29 .26 90.28 91.97 91.97 97.22"/>
        <path class="cls-1" d="M96.54,105.29L129.76.26h-3.35l-32.27,102.02c.69,1.13,1.49,2.14,2.4,3.01Z"/>
        <path class="cls-1" d="M102.56,108.78L136.88.26h-3.35l-33.93,107.27c.91.5,1.9.91,2.96,1.24Z"/>
        <path class="cls-1" d="M109.35,109.81L144,.26h-3.35l-34.57,109.3c1.04.14,2.13.23,3.27.25Z"/>
      </g>
      <path class="cls-2" d="M67.25,20.52l23.05,71.52,12.18-38.5L85.56.05h-27.45C53.79-.06,48.43.05,41.76.05,11.99.05,0,12.79,0,32.34c0,39.57,53.75,24.71,53.75,45.93,0,6.67-4.94,11.37-25.11,11.37-8.04,0-18.2-2.12-25.53-3.94-1.13-.3-3.1-.83-3.1-.83v17.66c0,1.21.56,2.27,1.69,2.73,4.8,2.27,16.93,4.55,30.47,4.55,30.61,0,43.03-12.58,43.03-33.2,0-40.78-53.75-25.62-53.75-45.93,0-5.46,3.67-10.16,21.3-10.16h24.51"/>
    </g>
  </g>
</svg>